<svg xmlns="http://www.w3.org/2000/svg" viewBox="0 0 69 18.038">
  <defs>
    <style>
      .cls-1 {
        fill: #fff;
      }
    </style>
  </defs>
  <g id="Group_1926" data-name="Group 1926" transform="translate(0 -0.1)">
    <path id="XMLID_18_" class="cls-1" d="M140.065,26.3a2.7,2.7,0,0,0-1.361.28,4.361,4.361,0,0,0-2.05,2.05l-.186.317.019-.578c.019-.317.037-.895.056-1.3l.019-.727h-.13c-.149,0-5.07.988-5.219,1.044-.093.037-.112.075-.112.317s.019.28.112.3c.056.019.28.056.5.093a.942.942,0,0,1,.746.391c.335.429.391,1.212.391,4.473a24.76,24.76,0,0,1-.186,4.417,1.088,1.088,0,0,1-.913.857c-.149.037-.354.075-.447.093l-.168.037-.019.335c-.019.242,0,.354.056.391.037.019,1.715.037,3.728.037l3.672-.019.019-.391a1.537,1.537,0,0,0-.019-.391,6.265,6.265,0,0,1-1.3-.186c-.41-.168-.615-.541-.708-1.3-.093-.876-.168-3.094-.13-4.883.037-1.827.037-1.827.149-1.957a2.391,2.391,0,0,1,1.547-.5,3.6,3.6,0,0,1,1.51.373,2.343,2.343,0,0,0,.522.205c.075-.019,1.267-3.206,1.267-3.355C141.426,26.524,140.736,26.3,140.065,26.3Z" transform="translate(-106.665 -21.317)"/>
    <path id="Path_3464" data-name="Path 3464" class="cls-1" d="M78.051,31.95a5.948,5.948,0,0,0-2.74-4.716,6.864,6.864,0,0,0-6.151-.13,5.948,5.948,0,0,0-2.908,3.448,8.763,8.763,0,0,0,0,5.088,5.373,5.373,0,0,0,1.417,2.386A5.262,5.262,0,0,0,70.726,39.5a14.932,14.932,0,0,0,2.237,0c.205-.037.578-.112.8-.168a5.9,5.9,0,0,0,4.175-4.7A11.6,11.6,0,0,0,78.051,31.95Zm-5.517,6.6c-1.361.41-2.33-.895-2.7-3.6a24.88,24.88,0,0,1,0-4.25c.261-2.181.932-3.28,1.994-3.28a1.353,1.353,0,0,1,1.118.485c.895.895,1.3,2.609,1.3,5.293a9.907,9.907,0,0,1-.69,4.4A2.16,2.16,0,0,1,72.534,38.548Z" transform="translate(-53.597 -21.431)"/>
    <path id="XMLID_15_" class="cls-1" d="M6.561,3.061H8.126c1.789,0,2.088.037,2.721.354a4.843,4.843,0,0,1,2.181,2.908c.242.634.242.634.764.466l.354-.112-.037-2.293c-.019-1.267-.037-2.386-.056-2.479L14.016,1.7H7.176c-3.765,0-6.915,0-7.008.019L0,1.737l.019.41.019.41.522.056a1.646,1.646,0,0,1,1.3.615c.541.783.634,1.864.634,6.952,0,5.424-.112,6.747-.634,7.418a1.41,1.41,0,0,1-1.1.578c-.783.168-.764.149-.764.559,0,.224.019.354.056.373.093.037,8.835.037,8.928,0,.112-.037.112-.69,0-.746-.056-.019-.335-.075-.652-.13a7.624,7.624,0,0,1-.764-.168c-.578-.242-.895-.932-1.006-2.181-.093-.895-.149-2.553-.149-3.765V11l.541.019a6.88,6.88,0,0,1,1.957.205,2.382,2.382,0,0,1,1.137,1.752l.112.466.41.019.41.019V7.515l-.41.019-.41.019-.112.466A2.344,2.344,0,0,1,8.89,9.752a2.17,2.17,0,0,1-.913.168c-.354.019-.857.037-1.1.037H6.412V8.484c0-1.472.075-4.622.13-5.107Z" transform="translate(0 -1.302)"/>
    <path id="XMLID_14_" class="cls-1" d="M328.6,33.718c-.41-.839-1.193-1.4-2.8-2.069a6.636,6.636,0,0,1-2.367-1.361,1.331,1.331,0,0,1-.391-1.174A1.61,1.61,0,0,1,323.507,28a1.581,1.581,0,0,1,1.6-.429c1.062.224,1.752.969,2.348,2.535.205.559.242.578.615.429l.242-.093v-.652c0-.354-.019-1.1-.037-1.659l-.037-1.006-.186-.075a10.337,10.337,0,0,0-4.063-.559,4.77,4.77,0,0,0-3.187,1.379,3.587,3.587,0,0,0-1.062,2.87,3.146,3.146,0,0,0,.895,2.181,5.35,5.35,0,0,0,2.255,1.3c2.05.8,2.609,1.286,2.591,2.274a1.74,1.74,0,0,1-1.249,1.733,3.615,3.615,0,0,1-1.417,0c-1.025-.261-1.808-1.156-2.479-2.8L320.171,35l-.2.019a.89.89,0,0,0-.336.075l-.13.075.019.727c0,.391.019,1.23.037,1.845l.037,1.137.224.093a13.451,13.451,0,0,0,2.759.6c.112.019.708.019,1.342,0a5.177,5.177,0,0,0,1.715-.168,4.15,4.15,0,0,0,3.131-2.684,2.919,2.919,0,0,0,.186-1.174A3.883,3.883,0,0,0,328.6,33.718Z" transform="translate(-259.95 -21.447)"/>
    <path id="Path_3465" data-name="Path 3465" class="cls-1" d="M264.635,26.887a6.078,6.078,0,0,0-5,.112,5.826,5.826,0,0,0-3.019,3.579,6.8,6.8,0,0,0-.354,2.7,7.243,7.243,0,0,0,.13,1.417,5.885,5.885,0,0,0,4.79,4.753,9.588,9.588,0,0,0,2.311,0,6.2,6.2,0,0,0,2.255-.876c.69-.466,1.4-1.174,1.4-1.4,0-.13-.242-.447-.336-.447a1.53,1.53,0,0,0-.429.224,3.708,3.708,0,0,1-2.237.615,3.567,3.567,0,0,1-2.833-1.118,2.808,2.808,0,0,1-.671-.895,6.314,6.314,0,0,1-.652-2.665l-.019-.429,3.672-.019,3.672-.019.019-.242a7.286,7.286,0,0,0-.037-.8A5.273,5.273,0,0,0,264.635,26.887Zm-3.69,4.529-.932.019V31.23a6.316,6.316,0,0,1,.075-.652c.317-1.994,1.062-3.187,1.994-3.187.857,0,1.379,1.174,1.491,3.336l.037.615-.876.019C262.268,31.379,261.448,31.4,260.944,31.416Z" transform="translate(-208.495 -21.4)"/>
    <path id="Path_3466" data-name="Path 3466" class="cls-1" d="M190.684,5.263a4.653,4.653,0,0,0-1.118-.056,5.139,5.139,0,0,0-2.088.447c-.205.093-.391.186-.41.186s-.019-1.286,0-2.87A17.512,17.512,0,0,0,187.031.1c-.168,0-5.219.969-5.275,1.006a.513.513,0,0,0-.056.3c.019.28-.019.261.6.391a1.542,1.542,0,0,1,.485.186,1.728,1.728,0,0,1,.5.913,14.584,14.584,0,0,1,.149,3.038c.037,2.479.037,5.032-.037,9.692l-.037,1.938.354.075c.522.112,2.032.373,2.516.429a19.222,19.222,0,0,0,2.945-.019,6.012,6.012,0,0,0,4.9-3.765,8.846,8.846,0,0,0,.5-2.013,11.476,11.476,0,0,0-.093-2.8A5.085,5.085,0,0,0,190.684,5.263Zm-3.541,11.686c-.056-.168-.13-5.983-.112-8.294l.019-1.808.335-.093a3.219,3.219,0,0,1,.783-.093,1.342,1.342,0,0,1,.82.186c.857.429,1.435,1.472,1.715,3.057a15.085,15.085,0,0,1,.019,2.908,6.283,6.283,0,0,1-1.547,3.8,1.959,1.959,0,0,1-.932.485,2.209,2.209,0,0,1-.82.019C187.236,17.08,187.2,17.061,187.142,16.949Z" transform="translate(-147.834)"/>
  </g>
</svg>
