<svg xmlns="http://www.w3.org/2000/svg" viewBox="0 0 40 40">
  <defs>
    <style>
      .cls-1 {
        fill: #00adee;
      }

      .cls-2, .cls-4 {
        fill: none;
      }

      .cls-2 {
        stroke: #0c6db2;
      }

      .cls-3 {
        stroke: none;
      }
    </style>
  </defs>
  <g id="Group_2166" data-name="Group 2166" transform="translate(-322 -905)">
    <path id="Path_3815" data-name="Path 3815" class="cls-1" d="M213.51,27.455h-3.844V15.108h3.844Zm-1.98-13.861h0a2.108,2.108,0,1,1,2.33-2.1A2.151,2.151,0,0,1,211.53,13.593ZM229,27.455h-4.426V21.048c0-1.631-.7-2.8-2.213-2.8a2.322,2.322,0,0,0-2.1,1.514,2.585,2.585,0,0,0-.117,1.048v6.639h-4.31V15.108h4.31v1.98a3.98,3.98,0,0,1,3.844-2.1c2.8,0,4.892,1.747,4.892,5.591v6.872Z" transform="translate(122.8 906.6)"/>
    <g id="Ellipse_214" data-name="Ellipse 214" class="cls-2" transform="translate(322 905)">
      <circle class="cls-3" cx="20" cy="20" r="20"/>
      <circle class="cls-4" cx="20" cy="20" r="19.5"/>
    </g>
  </g>
</svg>
