<svg xmlns="http://www.w3.org/2000/svg" xmlns:xlink="http://www.w3.org/1999/xlink" viewBox="0 0 313 241">
  <defs>
    <style>
      .cls-1 {
        fill: #fff;
        stroke: #0f60a4;
        opacity: 0.1;
      }

      .cls-2 {
        fill: url(#linear-gradient);
      }

      .cls-3 {
        fill: #0f60a4;
      }

      .cls-4 {
        fill: #182b60;
        font-size: 12px;
        font-family: Brother-1816-Book, "Brother 1816";
      }

      .cls-5 {
        stroke: none;
      }

      .cls-6 {
        fill: none;
      }
    </style>
    <linearGradient id="linear-gradient" x1="1" x2="0" y2="1" gradientUnits="objectBoundingBox">
      <stop offset="0" stop-color="#00ace6"/>
      <stop offset="0.599" stop-color="#124f95"/>
      <stop offset="1" stop-color="#1d1562"/>
    </linearGradient>
  </defs>
  <g id="Group_2169" data-name="Group 2169" transform="translate(-37 -5532)">
    <g id="Group_2168" data-name="Group 2168">
      <g id="Rectangle_647" data-name="Rectangle 647" class="cls-1" transform="translate(68.954 5700.54)">
        <rect class="cls-5" width="281.046" height="2" rx="1"/>
        <rect class="cls-6" x="0.5" y="0.5" width="280.046" height="1" rx="0.5"/>
      </g>
      <g id="Rectangle_648" data-name="Rectangle 648" class="cls-1" transform="translate(68.954 5669.329)">
        <rect class="cls-5" width="281.046" height="2" rx="1"/>
        <rect class="cls-6" x="0.5" y="0.5" width="280.046" height="1" rx="0.5"/>
      </g>
      <g id="Rectangle_649" data-name="Rectangle 649" class="cls-1" transform="translate(68.954 5638.118)">
        <rect class="cls-5" width="281.046" height="2" rx="1"/>
        <rect class="cls-6" x="0.5" y="0.5" width="280.046" height="1" rx="0.5"/>
      </g>
      <g id="Rectangle_650" data-name="Rectangle 650" class="cls-1" transform="translate(68.954 5606.907)">
        <rect class="cls-5" width="281.046" height="2" rx="1"/>
        <rect class="cls-6" x="0.5" y="0.5" width="280.046" height="1" rx="0.5"/>
      </g>
      <g id="Rectangle_651" data-name="Rectangle 651" class="cls-1" transform="translate(68.954 5575.695)">
        <rect class="cls-5" width="281.046" height="2" rx="1"/>
        <rect class="cls-6" x="0.5" y="0.5" width="280.046" height="1" rx="0.5"/>
      </g>
      <g id="Rectangle_652" data-name="Rectangle 652" class="cls-1" transform="translate(187.486 5544.484)">
        <rect class="cls-5" width="162.147" height="2" rx="1"/>
        <rect class="cls-6" x="0.5" y="0.5" width="161.147" height="1" rx="0.5"/>
      </g>
      <path id="Rectangle_611" data-name="Rectangle 611" class="cls-2" d="M10,0H25A10,10,0,0,1,35,10V141.075a0,0,0,0,1,0,0H0a0,0,0,0,1,0,0V10A10,10,0,0,1,10,0Z" transform="translate(215 5590.677)"/>
      <path id="Rectangle_613" data-name="Rectangle 613" class="cls-2" d="M10,0H25A10,10,0,0,1,35,10V151.062a0,0,0,0,1,0,0H0a0,0,0,0,1,0,0V10A10,10,0,0,1,10,0Z" transform="translate(260 5580.689)"/>
      <path id="Rectangle_615" data-name="Rectangle 615" class="cls-2" d="M10,0H25A10,10,0,0,1,35,10V187.267a0,0,0,0,1,0,0H0a0,0,0,0,1,0,0V10A10,10,0,0,1,10,0Z" transform="translate(305 5544.484)"/>
      <path id="Rectangle_618" data-name="Rectangle 618" class="cls-2" d="M10,0H25A10,10,0,0,1,35,10V45.568a0,0,0,0,1,0,0H0a0,0,0,0,1,0,0V10A10,10,0,0,1,10,0Z" transform="translate(125 5686.184)"/>
      <path id="Rectangle_620" data-name="Rectangle 620" class="cls-2" d="M10,0H25A10,10,0,0,1,35,10V167.916a0,0,0,0,1,0,0H0a0,0,0,0,1,0,0V10A10,10,0,0,1,10,0Z" transform="translate(170 5563.835)"/>
      <path id="Rectangle_646" data-name="Rectangle 646" class="cls-2" d="M3.121,0H31.879A3.121,3.121,0,0,1,35,3.121v0a0,0,0,0,1,0,0H0a0,0,0,0,1,0,0v0A3.121,3.121,0,0,1,3.121,0Z" transform="translate(80 5728.631)"/>
      <rect id="Rectangle_655" data-name="Rectangle 655" class="cls-3" width="2" height="201" rx="1" transform="translate(68 5532)"/>
      <rect id="Rectangle_621" data-name="Rectangle 621" class="cls-3" width="282" height="2" rx="1" transform="translate(68 5731)"/>
    </g>
    <text id="_100" data-name="100" class="cls-4" transform="translate(58 5737)"><tspan x="-20.232" y="0">100</tspan></text>
    <text id="_110" data-name="110" class="cls-4" transform="translate(58 5706)"><tspan x="-16.464" y="0">110</tspan></text>
    <text id="_120" data-name="120" class="cls-4" transform="translate(58 5675)"><tspan x="-18.66" y="0">120</tspan></text>
    <text id="_130" data-name="130" class="cls-4" transform="translate(58 5644)"><tspan x="-18.276" y="0">130</tspan></text>
    <text id="_140" data-name="140" class="cls-4" transform="translate(58 5613)"><tspan x="-19.128" y="0">140</tspan></text>
    <text id="_150" data-name="150" class="cls-4" transform="translate(58 5582)"><tspan x="-18.588" y="0">150</tspan></text>
    <text id="_160" data-name="160" class="cls-4" transform="translate(58 5551)"><tspan x="-19.524" y="0">160</tspan></text>
    <text id="_2000_q1" data-name="2000
q1" class="cls-4" transform="translate(98 5754)"><tspan x="-15.294" y="0">2000</tspan><tspan x="-5.778" y="16">q1</tspan></text>
    <text id="_2003_q3" data-name="2003
q3" class="cls-4" transform="translate(143 5754)"><tspan x="-14.316" y="0">2003</tspan><tspan x="-6.684" y="16">q3</tspan></text>
    <text id="_2007_q1" data-name="2007
q1" class="cls-4" transform="translate(187 5754)"><tspan x="-14.31" y="0">2007</tspan><tspan x="-5.778" y="16">q1</tspan></text>
    <text id="_2010_q3" data-name="2010
q3" class="cls-4" transform="translate(233 5754)"><tspan x="-13.41" y="0">2010</tspan><tspan x="-6.684" y="16">q3</tspan></text>
    <text id="_2014_q1" data-name="2014
q1" class="cls-4" transform="translate(278 5754)"><tspan x="-12.858" y="0">2014</tspan><tspan x="-5.778" y="16">q1</tspan></text>
    <text id="_2017_q3" data-name="2017
q3" class="cls-4" transform="translate(323 5754)"><tspan x="-12.486" y="0">2017</tspan><tspan x="-6.684" y="16">q3</tspan></text>
    <text id="Equally_weighted" data-name="Equally weighted" class="cls-4" transform="translate(80 5551)"><tspan x="0" y="0">Equally weighted</tspan></text>
  </g>
</svg>
