<svg xmlns="http://www.w3.org/2000/svg" xmlns:xlink="http://www.w3.org/1999/xlink" viewBox="0 0 59.028 82">
  <defs>
    <style>
      .cls-1 {
        fill: url(#linear-gradient);
      }

      .cls-2 {
        fill: url(#linear-gradient-2);
      }

      .cls-3 {
        fill: url(#linear-gradient-11);
      }
    </style>
    <linearGradient id="linear-gradient" x1="1" x2="0" y2="1" gradientUnits="objectBoundingBox">
      <stop offset="0" stop-color="#9fe5ff"/>
      <stop offset="0.599" stop-color="#3ac8fd"/>
      <stop offset="1" stop-color="#00adee"/>
    </linearGradient>
    <linearGradient id="linear-gradient-2" x1="1" x2="0" y2="1" gradientUnits="objectBoundingBox">
      <stop offset="0" stop-color="#00ace6"/>
      <stop offset="0.599" stop-color="#124f95"/>
      <stop offset="1" stop-color="#1d1562"/>
    </linearGradient>
    <linearGradient id="linear-gradient-11" x1="1" x2="0" y2="1" gradientUnits="objectBoundingBox">
      <stop offset="0" stop-color="#ffeabe"/>
      <stop offset="0.599" stop-color="#ffce62"/>
      <stop offset="1" stop-color="#fdc140"/>
    </linearGradient>
  </defs>
  <g id="headphones" transform="translate(-71.717 0)">
    <path id="Path_3866" data-name="Path 3866" class="cls-1" d="M274.67,176.156c-1.4-1.392-2.263-3.893-2.263-7.2,0-6.748,3.584-14.287,8.005-16.84a5.079,5.079,0,0,1,3.851-.718h0a5.406,5.406,0,0,1,5.1-.17h0l.041.024c.042.023.083.047.124.072l5.693,3.3v0c2.46,1.221,4.069,4.655,4.069,9.594,0,8.061-4.282,17.069-9.564,20.118-2.182,1.26-4.192,1.3-5.8.355v0l-5.914-3.416-.005,0-.013-.008h0A7.815,7.815,0,0,1,274.67,176.156Z" transform="translate(-200.69 -126.536)"/>
    <path id="Path_3867" data-name="Path 3867" class="cls-2" d="M348.37,424.281a6.509,6.509,0,0,1,1.247-3.694c.643-.9,2.023-2.2,3.183-1.38v0l7.207,4.209v0c1.79.5,1.217,3.328.721,4.544-.506,1.239-2.114,3.722-3.787,2.868h0l0,0-.032-.019-7.536-4.365a1.3,1.3,0,0,1-.179-.1l-.027-.016h0A2.43,2.43,0,0,1,348.37,424.281Z" transform="translate(-274.789 -351.852)"/>
    <path id="Path_3868" data-name="Path 3868" class="cls-1" d="M348.451,451.829c0,1.928,1.172,2.814,2.618,1.979a6.27,6.27,0,0,0,2.618-5c0-1.928-1.172-2.814-2.618-1.979A6.27,6.27,0,0,0,348.451,451.829Z" transform="translate(-267.263 -375.001)"/>
    <path id="Path_3869" data-name="Path 3869" class="cls-2" d="M377.581,154.823c-5.282,3.05-9.564,12.057-9.564,20.118a17.869,17.869,0,0,0,.5,4.36c-1.4-1.392-2.263-3.893-2.263-7.2,0-6.748,3.584-14.287,8.005-16.84a5.079,5.079,0,0,1,3.851-.718C377.935,154.629,377.759,154.72,377.581,154.823Z" transform="translate(-294.537 -129.682)"/>
    <path id="Path_3870" data-name="Path 3870" class="cls-1" d="M71.718,282.37c0-8.061,4.282-17.069,9.564-20.118,2.106-1.216,4.052-1.3,5.632-.45h0l.041.024c.042.023.082.047.124.072l5.693,3.3v0c1.676.832,2.955,2.691,3.6,5.354,1.229,1.438,1.975,3.815,1.975,6.89,0,6.748-3.584,14.287-8.006,16.84a5.327,5.327,0,0,1-3.4.807,5.431,5.431,0,0,1-5.469.176v0l-5.914-3.416-.005,0-.014-.008h0C73.221,290.516,71.718,287.145,71.718,282.37Z" transform="translate(32.396 -219.4)"/>
    <path id="Path_3871" data-name="Path 3871" class="cls-2" d="M135.184,6.209h0L135.2,6.2q.291-.178.59-.339L142.82,1.82a11.914,11.914,0,0,1,12.348-.186h0a32.336,32.336,0,0,1,16.139,27.988v14.9c-3.231.092-5.915,2.811-7.685,5.259v.279l-3.7-2.186V33A27.233,27.233,0,0,0,146.3,9.416h0a8.806,8.806,0,0,0-4.443-1.2,8.8,8.8,0,0,0-1.2,4.475V26.813c-3.234.1-5.915,2.825-7.685,5.277v.228l-3.527-2.036V16.453A11.9,11.9,0,0,1,135.184,6.209Z" transform="translate(-49.808 0)"/>
    <path id="Path_3872" data-name="Path 3872" class="cls-2" d="M211.606,73.231V57.211a32.336,32.336,0,0,0-16.139-27.987h0a12.016,12.016,0,0,0-18.035,10.4V53.453l3.527,2.036V40.281a8.884,8.884,0,0,1,13.326-7.694h0A27.233,27.233,0,0,1,207.9,56.172V71.045Z" transform="translate(-97.792 -23.171)"/>
    <path id="Path_3873" data-name="Path 3873" class="cls-2" d="M81.128,303.99c0,8.061,4.282,12.124,9.564,9.075s9.564-12.057,9.564-20.118-4.282-12.124-9.564-9.075S81.128,295.928,81.128,303.99Z" transform="translate(28.982 -237.556)"/>
    <path id="Path_3874" data-name="Path 3874" class="cls-2" d="M71.717,327.357c0,6.748,3.584,10.149,8.006,7.6s8.006-10.092,8.006-16.84-3.584-10.149-8.006-7.6S71.717,320.61,71.717,327.357Z" transform="translate(43.017 -260.073)"/>
    <path id="Path_3875" data-name="Path 3875" class="cls-2" d="M272.407,193.409c0,8.061,4.282,12.124,9.564,9.075s9.564-12.057,9.564-20.118-4.282-12.124-9.564-9.075S272.407,185.347,272.407,193.409Z" transform="translate(-192.932 -144.685)"/>
    <path id="Path_3876" data-name="Path 3876" class="cls-3" d="M299.995,228.675c0,4.337,2.3,6.523,5.146,4.882s5.146-6.487,5.146-10.824-2.3-6.523-5.146-4.882S299.995,224.338,299.995,228.675Z" transform="translate(-216.101 -182.502)"/>
    <path id="Path_3877" data-name="Path 3877" class="cls-2" d="M228.554,424.959l-2.85,4.178c-1.248,1.829-2.477,3.534-4.57,4.5a8.867,8.867,0,0,1-8.1-.424c-1.546-.872-3.058-1.807-4.613-2.663a1.687,1.687,0,0,0-2.58.868,2.222,2.222,0,0,0,1.281,2.46c1.55.918,3.116,1.811,4.681,2.7a12.145,12.145,0,0,0,15.942-3.4c1.1-1.533,2.172-3.088,3.258-4.632a4.616,4.616,0,0,0,1.154-2.2C232.259,424.431,229.716,423.256,228.554,424.959Z" transform="translate(-122.881 -356.208)"/>
  </g>
</svg>
