<svg xmlns="http://www.w3.org/2000/svg" viewBox="0 0 37 37">
  <defs>
    <style>
      .cls-1 {
        fill: none;
        stroke: #465679;
      }

      .cls-2 {
        fill: #8b95af;
      }
    </style>
  </defs>
  <g id="Group_2237" data-name="Group 2237" transform="translate(-469.7 -463.5)">
    <path id="Path_3984" data-name="Path 3984" class="cls-1" d="M477.2,87a18,18,0,1,0-18-18,17.985,17.985,0,0,0,18,18" transform="translate(11 413)"/>
    <path id="Path_3985" data-name="Path 3985" class="cls-2" d="M482.206,59.5H471.194a3.525,3.525,0,0,0-3.494,3.494V74.112a3.525,3.525,0,0,0,3.494,3.494h11.012a3.525,3.525,0,0,0,3.494-3.494V62.994A3.457,3.457,0,0,0,482.206,59.5Zm1.059,2.118h.424v3.071h-3.071V61.618ZM474.159,66.7a2.891,2.891,0,0,1,2.541-1.271,3.156,3.156,0,0,1,2.541,1.271,2.875,2.875,0,0,1,.635,1.8,3.176,3.176,0,0,1-6.353,0A2.876,2.876,0,0,1,474.159,66.7Zm9.847,7.306a1.672,1.672,0,0,1-1.694,1.694H471.194a1.672,1.672,0,0,1-1.694-1.694V66.594h2.647a4.977,4.977,0,1,0,9.318,0h2.647v7.412Z" transform="translate(11.5 413.5)"/>
  </g>
</svg>
