<svg xmlns="http://www.w3.org/2000/svg" viewBox="0 0 41 41">
  <defs>
    <style>
      .cls-1 {
        fill: none;
        stroke: #0c6db2;
      }

      .cls-2 {
        fill: #00adee;
      }
    </style>
  </defs>
  <g id="Group_2234" data-name="Group 2234" transform="translate(-469.7 -463.5)">
    <path id="Path_3984" data-name="Path 3984" class="cls-1" d="M479.2,91a20,20,0,1,0-20-20,19.983,19.983,0,0,0,20,20" transform="translate(11 413)"/>
    <path id="Path_3985" data-name="Path 3985" class="cls-2" d="M483.818,59.5H471.582a3.917,3.917,0,0,0-3.882,3.882V75.735a3.917,3.917,0,0,0,3.882,3.882h12.235a3.917,3.917,0,0,0,3.882-3.882V63.382A3.841,3.841,0,0,0,483.818,59.5Zm1.176,2.353h.471v3.412h-3.412V61.853ZM474.876,67.5a3.212,3.212,0,0,1,2.824-1.412,3.506,3.506,0,0,1,2.824,1.412,3.2,3.2,0,0,1,.706,2,3.529,3.529,0,0,1-7.059,0A3.2,3.2,0,0,1,474.876,67.5Zm10.941,8.118a1.858,1.858,0,0,1-1.882,1.882H471.582a1.858,1.858,0,0,1-1.882-1.882V67.382h2.941a5.53,5.53,0,1,0,10.353,0h2.941v8.235Z" transform="translate(12.5 414.5)"/>
  </g>
</svg>
