<svg xmlns="http://www.w3.org/2000/svg" xmlns:xlink="http://www.w3.org/1999/xlink" viewBox="0 0 82 62.204">
  <defs>
    <style>
      .cls-1 {
        fill: url(#linear-gradient);
      }

      .cls-2 {
        fill: url(#linear-gradient-4);
      }

      .cls-3 {
        fill: #d2edda;
      }

      .cls-4 {
        fill: url(#linear-gradient-11);
      }

      .cls-5 {
        fill: #addfba;
      }
    </style>
    <linearGradient id="linear-gradient" x1="1" x2="0" y2="1" gradientUnits="objectBoundingBox">
      <stop offset="0" stop-color="#00ace6"/>
      <stop offset="0.599" stop-color="#124f95"/>
      <stop offset="1" stop-color="#1d1562"/>
    </linearGradient>
    <linearGradient id="linear-gradient-4" x1="1" x2="0" y2="1" gradientUnits="objectBoundingBox">
      <stop offset="0" stop-color="#9fe5ff"/>
      <stop offset="0.599" stop-color="#3ac8fd"/>
      <stop offset="1" stop-color="#00adee"/>
    </linearGradient>
    <linearGradient id="linear-gradient-11" x1="1" x2="0" y2="1" gradientUnits="objectBoundingBox">
      <stop offset="0" stop-color="#ffeabe"/>
      <stop offset="0.599" stop-color="#ffce62"/>
      <stop offset="1" stop-color="#fdc140"/>
    </linearGradient>
  </defs>
  <g id="money_1_" data-name="money (1)" transform="translate(0 -61.803)">
    <g id="Group_2132" data-name="Group 2132" transform="translate(0 61.803)">
      <path id="Path_3730" data-name="Path 3730" class="cls-1" d="M29.928,61.8.042,79.171,0,93.943l52.072,30.064,29.886-17.368L82,91.867Z" transform="translate(0 -61.803)"/>
      <path id="Path_3731" data-name="Path 3731" class="cls-1" d="M355.063,249.52l-.042,14.772L325.135,281.66l.042-14.772Z" transform="translate(-273.063 -219.456)"/>
    </g>
    <path id="Path_3732" data-name="Path 3732" class="cls-1" d="M52.114,200.309l-.042,14.772L0,185.017l.042-14.772Z" transform="translate(0 -91.074)"/>
    <path id="Path_3733" data-name="Path 3733" class="cls-2" d="M82.219,91.867,52.334,109.235.261,79.171,30.147,61.8Z" transform="translate(-0.219)"/>
    <path id="Path_3734" data-name="Path 3734" class="cls-3" d="M121.774,112.535a3.232,3.232,0,0,1,1.426-1.472l0-1.477L83.986,86.943a8.47,8.47,0,0,1-7.688,0L59.185,96.888q.1.058.194.118-.094-.06-.194-.118l0,1.477a3.257,3.257,0,0,1,1.456,1.5,3.231,3.231,0,0,1-1.427,1.472l0,1.477,39.218,22.642a8.47,8.47,0,0,1,7.688,0l17.114-9.945,0-1.477A3.253,3.253,0,0,1,121.774,112.535ZM81.646,101.423c5.244-3.047,13.775-3.048,19.053,0,2.329,1.345,3.635,3.059,3.918,4.815-.287,1.732-1.57,3.417-3.852,4.743-5.244,3.047-13.773,3.048-19.052,0-2.333-1.347-3.638-3.063-3.918-4.823C78.084,104.43,79.367,102.748,81.646,101.423Z" transform="translate(-49.703 -21.114)"/>
    <g id="Group_2133" data-name="Group 2133" transform="translate(9.478 75.775)">
      <path id="Path_3735" data-name="Path 3735" class="cls-1" d="M60.79,151.283l0,1.477a2.72,2.72,0,0,0-1.6-2.242l0-1.477A2.721,2.721,0,0,1,60.79,151.283Z" transform="translate(-59.181 -149.041)"/>
      <path id="Path_3736" data-name="Path 3736" class="cls-1" d="M201.956,161.7l0,1.477c.006-2.01-1.32-4.023-3.976-5.556-5.278-3.047-13.809-3.047-19.053,0-2.605,1.514-3.909,3.5-3.915,5.479l0-1.477c.006-1.984,1.31-3.965,3.915-5.479,5.244-3.047,13.775-3.048,19.053,0C200.636,157.677,201.962,159.689,201.956,161.7Z" transform="translate(-156.458 -153.087)"/>
    </g>
    <g id="Group_2134" data-name="Group 2134" transform="translate(56.409 88.472)">
      <path id="Path_3737" data-name="Path 3737" class="cls-1" d="M449.046,232.01l0-1.477a2.7,2.7,0,0,1,1.58-2.211l0,1.477A2.7,2.7,0,0,0,449.046,232.01Z" transform="translate(-433.537 -228.322)"/>
      <path id="Path_3738" data-name="Path 3738" class="cls-1" d="M369.329,256.125l0,1.477-17.114,9.945,0-1.477Z" transform="translate(-352.211 -251.672)"/>
    </g>
    <path id="Path_3739" data-name="Path 3739" class="cls-1" d="M98.559,199.488l0,1.477L59.337,178.322l0-1.477Z" transform="translate(-49.834 -96.617)"/>
    <path id="Path_3740" data-name="Path 3740" class="cls-1" d="M311.9,313.386l0,1.477a8.471,8.471,0,0,0-7.687,0l0-1.477A8.47,8.47,0,0,1,311.9,313.386Z" transform="translate(-255.49 -210.516)"/>
    <path id="Path_3741" data-name="Path 3741" class="cls-4" d="M123.225,109.586c-2.116,1.23-2.1,3.223.025,4.453l-17.114,9.945a8.471,8.471,0,0,0-7.688,0L59.231,101.341c2.116-1.23,2.1-3.223-.025-4.453L76.32,86.943a8.47,8.47,0,0,0,7.688,0Zm-41.492,1.4c5.278,3.047,13.808,3.047,19.052,0s5.217-7.989-.061-11.036-13.809-3.047-19.053,0-5.216,7.988.062,11.036" transform="translate(-49.724 -21.114)"/>
    <path id="Path_3742" data-name="Path 3742" class="cls-5" d="M219.377,171.869l.011-.007.007-2.363-1.063-.614-1.545.9a9.349,9.349,0,0,0-1.708-.6,7.888,7.888,0,0,0-1.8-.236,7.789,7.789,0,0,0-1.811.186,5.934,5.934,0,0,0-1.692.663,3.029,3.029,0,0,0-.894.725,1.213,1.213,0,0,0-.271.782q0-.017,0-.034l-.007,2.363c0,.011,0,.023,0,.034a1.816,1.816,0,0,0,.3.89l.006.009-.7.405a5.473,5.473,0,0,1-.826-.77,6.808,6.808,0,0,1-.573-.756,3.234,3.234,0,0,1-.317-.609,1.384,1.384,0,0,1-.079-.284V172.5l-3.3.631-.007,2.364a4.912,4.912,0,0,0,.985,1.6c.014.016.031.032.045.048l-.156.091-.007,2.364,1.063.614,1.775-1.031a9.612,9.612,0,0,0,1.639.68,8.031,8.031,0,0,0,1.773.342,6.791,6.791,0,0,0,1.827-.106,5.727,5.727,0,0,0,1.792-.685,3.084,3.084,0,0,0,1.046-.885,1.345,1.345,0,0,0,.245-.749l.007-2.364c0,.006,0,.012,0,.019a1.22,1.22,0,0,0-.01-.19,2.092,2.092,0,0,0-.372-.877l.682-.4a4.165,4.165,0,0,1,.649.613,5.709,5.709,0,0,1,.464.623,3.4,3.4,0,0,1,.272.5.892.892,0,0,1,.071.234v.038l3.189-.569.007-2.363A7.822,7.822,0,0,0,219.377,171.869Z" transform="translate(-170.577 -89.932)"/>
    <path id="Path_3743" data-name="Path 3743" class="cls-1" d="M296.678,172.718l-.007,2.363-1.545.9.007-2.363Z" transform="translate(-247.861 -93.151)"/>
    <path id="Path_3744" data-name="Path 3744" class="cls-1" d="M261.3,184.209l.007-2.363c0-.164.114-.312.34-.443a2.028,2.028,0,0,1,1.966.107l-.007,2.363a2.028,2.028,0,0,0-1.966-.107C261.412,183.9,261.3,184.045,261.3,184.209Z" transform="translate(-219.449 -100.271)"/>
    <path id="Path_3745" data-name="Path 3745" class="cls-3" d="M223.683,193.817l.007-2.364a.124.124,0,0,1,0-.024l-.007,2.363A.156.156,0,0,0,223.683,193.817Z" transform="translate(-187.859 -108.866)"/>
    <path id="Path_3746" data-name="Path 3746" class="cls-1" d="M269.208,185.819l-.007,2.364-2.08,1.209.007-2.364Z" transform="translate(-224.34 -104.154)"/>
    <g id="Group_2135" data-name="Group 2135" transform="translate(38.023 81.333)">
      <path id="Path_3747" data-name="Path 3747" class="cls-1" d="M237.412,186.11l.007-2.363c0,.011,0,.023,0,.034a1.818,1.818,0,0,0,.3.89,6.644,6.644,0,0,0,.812,1.044l-.007,2.363a6.643,6.643,0,0,1-.812-1.044,1.815,1.815,0,0,1-.3-.89C237.412,186.133,237.412,186.122,237.412,186.11Z" transform="translate(-237.412 -183.747)"/>
      <path id="Path_3748" data-name="Path 3748" class="cls-1" d="M281.576,187.807l-.007,2.363a.79.79,0,0,0-.073-.251,3.393,3.393,0,0,0-.271-.5,5.678,5.678,0,0,0-.464-.623,4.166,4.166,0,0,0-.649-.613l.007-2.364a4.166,4.166,0,0,1,.649.613,5.709,5.709,0,0,1,.464.623,3.414,3.414,0,0,1,.272.5A.793.793,0,0,1,281.576,187.807Z" transform="translate(-273.273 -185.486)"/>
    </g>
    <path id="Path_3749" data-name="Path 3749" class="cls-1" d="M292.394,194.812l-.007,2.363-3.189.569.007-2.364Z" transform="translate(-242.881 -111.707)"/>
    <g id="Group_2136" data-name="Group 2136" transform="translate(39.131 83.301)">
      <path id="Path_3750" data-name="Path 3750" class="cls-1" d="M244.862,196.585l-.007,2.363-.526-.551.007-2.363Z" transform="translate(-244.33 -196.034)"/>
      <path id="Path_3751" data-name="Path 3751" class="cls-1" d="M251.175,203.776l-.007,2.363a.408.408,0,0,0-.02-.125,2.31,2.31,0,0,0-.457-.734l.007-2.363a2.313,2.313,0,0,1,.457.734A.4.4,0,0,1,251.175,203.776Z" transform="translate(-249.672 -201.815)"/>
    </g>
    <path id="Path_3752" data-name="Path 3752" class="cls-1" d="M241.072,202.916l-.007,2.364-1.836,1.067.007-2.364Z" transform="translate(-200.915 -118.513)"/>
    <g id="Group_2137" data-name="Group 2137" transform="translate(32.529 83.194)">
      <path id="Path_3753" data-name="Path 3753" class="cls-1" d="M276.93,209.594l-.007,2.364a1.344,1.344,0,0,1-.245.749l.007-2.364A1.347,1.347,0,0,0,276.93,209.594Z" transform="translate(-264.896 -207.315)"/>
      <path id="Path_3754" data-name="Path 3754" class="cls-1" d="M205.775,198.424l-.007,2.363a9.056,9.056,0,0,1-1.673-1.462,4.91,4.91,0,0,1-.985-1.6l.007-2.364a4.909,4.909,0,0,0,.985,1.6A9.051,9.051,0,0,0,205.775,198.424Z" transform="translate(-203.11 -195.366)"/>
      <path id="Path_3755" data-name="Path 3755" class="cls-1" d="M209.594,221.573l-.007,2.364-1.063-.614.007-2.364Z" transform="translate(-207.657 -216.86)"/>
    </g>
    <path id="Path_3756" data-name="Path 3756" class="cls-1" d="M216.946,218.353l-.007,2.364-1.775,1.031.007-2.364Z" transform="translate(-180.704 -131.478)"/>
    <path id="Path_3757" data-name="Path 3757" class="cls-4" d="M214.935,176.155a3.083,3.083,0,0,1-1.046.885,5.715,5.715,0,0,1-1.792.685,6.806,6.806,0,0,1-1.827.106,8.023,8.023,0,0,1-1.773-.342,9.624,9.624,0,0,1-1.639-.68l-1.775,1.031-1.063-.614,1.791-1.041a9.056,9.056,0,0,1-1.673-1.462,4.909,4.909,0,0,1-.985-1.6l3.3-.631a.864.864,0,0,0,.079.337,3.223,3.223,0,0,0,.317.609,6.774,6.774,0,0,0,.573.756,5.449,5.449,0,0,0,.826.77l2.036-1.183-.525-.551a6.644,6.644,0,0,1-.812-1.044,1.815,1.815,0,0,1-.3-.89,1.211,1.211,0,0,1,.271-.782,3.031,3.031,0,0,1,.894-.725,5.933,5.933,0,0,1,1.692-.663,7.8,7.8,0,0,1,1.811-.186,7.888,7.888,0,0,1,1.8.236,9.351,9.351,0,0,1,1.708.6l1.545-.9,1.063.614-1.545.9a6.094,6.094,0,0,1,1.435,1.343,8.182,8.182,0,0,1,.8,1.3l-3.189.569a.616.616,0,0,0-.071-.271,3.4,3.4,0,0,0-.272-.5,5.678,5.678,0,0,0-.464-.623,4.166,4.166,0,0,0-.649-.613l-2.081,1.209.371.355a10.584,10.584,0,0,1,.951,1.089,2.182,2.182,0,0,1,.443.983A1.307,1.307,0,0,1,214.935,176.155Zm-6-.751a2.018,2.018,0,0,0,2,.214c.266-.154.364-.336.3-.546a2.309,2.309,0,0,0-.457-.734l-1.836,1.067m3.959-3.138,1.882-1.094a2.028,2.028,0,0,0-1.966-.107c-.255.148-.367.318-.335.507a1.516,1.516,0,0,0,.419.694" transform="translate(-170.617 -89.934)"/>
    <path id="Path_3758" data-name="Path 3758" class="cls-1" d="M234.329,214.269l-.007,2.364a3.083,3.083,0,0,1-1.046.885,5.722,5.722,0,0,1-1.792.685,6.806,6.806,0,0,1-1.827.106,8.023,8.023,0,0,1-1.773-.342,9.6,9.6,0,0,1-1.639-.68l.007-2.363a9.585,9.585,0,0,0,1.639.68,8.031,8.031,0,0,0,1.773.342,6.8,6.8,0,0,0,1.827-.106,5.723,5.723,0,0,0,1.792-.685A3.085,3.085,0,0,0,234.329,214.269Z" transform="translate(-190.01 -128.048)"/>
  </g>
</svg>
