<svg xmlns="http://www.w3.org/2000/svg" xmlns:xlink="http://www.w3.org/1999/xlink" viewBox="0 0 50.077 82">
  <defs>
    <style>
      .cls-1 {
        fill: #2e2e30;
      }

      .cls-2 {
        fill: url(#linear-gradient);
      }

      .cls-3 {
        fill: url(#linear-gradient-6);
      }

      .cls-4 {
        fill: #d8d8da;
      }

      .cls-5 {
        fill: url(#linear-gradient-7);
      }
    </style>
    <linearGradient id="linear-gradient" x1="1" x2="0" y2="1" gradientUnits="objectBoundingBox">
      <stop offset="0" stop-color="#00ace6"/>
      <stop offset="0.599" stop-color="#124f95"/>
      <stop offset="1" stop-color="#1d1562"/>
    </linearGradient>
    <linearGradient id="linear-gradient-6" x1="1" x2="0" y2="1" gradientUnits="objectBoundingBox">
      <stop offset="0" stop-color="#ffeabe"/>
      <stop offset="0.599" stop-color="#ffce62"/>
      <stop offset="1" stop-color="#fdc140"/>
    </linearGradient>
    <linearGradient id="linear-gradient-7" x1="1" x2="0" y2="1" gradientUnits="objectBoundingBox">
      <stop offset="0" stop-color="#9fe5ff"/>
      <stop offset="0.599" stop-color="#3ac8fd"/>
      <stop offset="1" stop-color="#00adee"/>
    </linearGradient>
  </defs>
  <g id="padlock" transform="translate(-99.662 0)">
    <path id="Path_3689" data-name="Path 3689" class="cls-1" d="M114.169,108.6l-14.507,8.43v35.641l35.57,20.537,14.406-8.43.1-35.641Z" transform="translate(0 -91.203)"/>
    <path id="Path_3690" data-name="Path 3690" class="cls-2" d="M321.76,245.254l14.507-8.43-.1,35.641L321.76,280.9Z" transform="translate(-186.528 -198.896)"/>
    <path id="Path_3691" data-name="Path 3691" class="cls-2" d="M99.662,117.025l14.507-8.43,35.57,20.537-14.507,8.43Z" transform="translate(0 -91.203)"/>
    <g id="Group_2126" data-name="Group 2126" transform="translate(109.893 22.604)">
      <path id="Path_3692" data-name="Path 3692" class="cls-2" d="M295.322,212.773a7.679,7.679,0,0,0-6.968,0c-1.918,1.115-1.908,2.922.022,4.036a7.679,7.679,0,0,0,6.969,0c1.918-1.115,1.908-2.922-.023-4.036" transform="translate(-267.162 -200.598)"/>
      <path id="Path_3693" data-name="Path 3693" class="cls-2" d="M171.946,141.976a7.679,7.679,0,0,0-6.968,0c-1.918,1.115-1.908,2.922.022,4.036a7.679,7.679,0,0,0,6.969,0c1.918-1.115,1.908-2.922-.023-4.036" transform="translate(-163.546 -141.14)"/>
    </g>
    <path id="Path_3694" data-name="Path 3694" class="cls-2" d="M135.232,181.77v35.641l-35.57-20.537V161.233Z" transform="translate(0 -135.411)"/>
    <path id="Path_3695" data-name="Path 3695" class="cls-3" d="M187.333,279.377c-2.471-1.427-4.481-.282-4.489,2.558a9.65,9.65,0,0,0,2.109,5.6v9.023l4.707,2.717v-9.023c1.276-.172,2.128-1.3,2.133-3.149A9.829,9.829,0,0,0,187.333,279.377Z" transform="translate(-69.86 -234.118)"/>
    <path id="Path_3696" data-name="Path 3696" class="cls-4" d="M192.851,10.34a23.78,23.78,0,0,0-8.275-8.728c-3.131-1.807-6.078-2.106-8.3-.84l-4.629,2.69C169.427,4.727,168.2,7.4,168.188,11l-.031,14.327v.055a1.622,1.622,0,0,0,.382.989,2.958,2.958,0,0,0,.85.7,4.978,4.978,0,0,0,1.218.49,6.575,6.575,0,0,0,1.275.2,7.1,7.1,0,0,0,.91,0h0a5.764,5.764,0,0,0,2.5-.7,2.229,2.229,0,0,0,1.191-1.453,1.352,1.352,0,0,0,.022-.21v-.069l.034-14.882a7.829,7.829,0,0,1,.515-2.923h0a7.887,7.887,0,0,1,2.873,1.045c4.406,2.544,7.98,8.733,7.966,13.8l-.032,14.26v.127a1.684,1.684,0,0,0,.427,1.01h0a3.055,3.055,0,0,0,.808.652,4.858,4.858,0,0,0,1.125.464h0a6.471,6.471,0,0,0,1.36.229h.016a6.947,6.947,0,0,0,.947,0h.025a5.73,5.73,0,0,0,2.455-.694,2.267,2.267,0,0,0,1.189-1.422h0v0a1.347,1.347,0,0,0,.029-.25V21.843A23.588,23.588,0,0,0,192.851,10.34Z" transform="translate(-57.525)"/>
    <path id="Path_3697" data-name="Path 3697" class="cls-5" d="M196.087,65.335l-.034,14.882v.069a1.318,1.318,0,0,1-.022.21,2.23,2.23,0,0,1-1.191,1.453,5.759,5.759,0,0,1-2.5.7h0a7.105,7.105,0,0,1-.91,0l.014-4.812.019-9.806Z" transform="translate(-77.067 -54.872)"/>
    <path id="Path_3698" data-name="Path 3698" class="cls-5" d="M198.591,33.363a4.351,4.351,0,0,0-1.818,2.2h0a7.818,7.818,0,0,0-.515,2.923l-4.63,2.69c0-.06,0-.119,0-.178,0-.011,0-.023,0-.034s0-.032,0-.049c0-.049,0-.1.006-.148,0,0,0-.009,0-.014s0-.023,0-.034,0-.025,0-.037c0-.065.007-.13.012-.193,0-.045.007-.089.011-.133a23.215,23.215,0,0,1,0-.037v0c0-.025,0-.049.007-.074h0c0-.039.008-.077.013-.115,0,0,0-.005,0-.008s0-.005,0-.008,0,0,0-.007c0-.032.007-.063.011-.094.006-.049.013-.1.02-.147,0-.007,0-.013,0-.02.01-.07.021-.139.033-.207,0,0,0,0,0,0,.01-.056.02-.112.031-.167,0,0,0-.005,0-.008a0,0,0,0,1,0,0c0-.023.009-.046.014-.07.009-.045.019-.089.029-.133a.2.2,0,0,0,.005-.023q.021-.092.045-.182l0-.009c.014-.056.03-.112.046-.167l0-.01a.071.071,0,0,1,0-.016c.016-.058.034-.116.053-.173s.033-.1.05-.15l0-.007c.006-.018.013-.036.02-.053l.005-.014c.011-.031.022-.062.034-.091l.008-.019.017-.045c.017-.043.034-.086.053-.128l.014-.033c.019-.043.037-.086.058-.128.005-.013.011-.025.017-.037l.008-.016c.02-.042.04-.083.061-.124s.046-.09.07-.133c.01-.018.02-.036.03-.053s.03-.054.046-.081l.034-.058c.05-.082.1-.16.154-.237h0c.013-.018.025-.037.039-.055s.02-.029.03-.042l.014-.018h0c.013-.018.026-.036.04-.053s.039-.051.059-.076l0,0c.017-.022.034-.043.053-.065l.008-.009q.033-.04.068-.079l.009-.011c.034-.037.068-.075.1-.111s.057-.058.086-.086l.029-.029c.01-.01.02-.02.03-.028l.011-.011.023-.021c.026-.025.052-.049.079-.071a.155.155,0,0,1,.015-.014l.029-.024,0,0,.031-.026c.011-.008.021-.016.031-.025h0c.028-.023.058-.046.087-.068l.016-.012c.016-.013.031-.025.048-.036s.035-.027.053-.039h0l.026-.019.026-.018.011-.008.079-.053.028-.018.105-.065.03-.017Z" transform="translate(-77.236 -28.02)"/>
    <path id="Path_3699" data-name="Path 3699" class="cls-5" d="M319.159,136.389V151.3a1.343,1.343,0,0,1-.028.25v0h0a2.267,2.267,0,0,1-1.189,1.422,5.73,5.73,0,0,1-2.455.694h-.025a7,7,0,0,1-.947,0H314.5v0l.014-4.811v-.014l.019-9.763Z" transform="translate(-180.429 -114.546)"/>
    <g id="Group_2127" data-name="Group 2127" transform="translate(114.123 0)">
      <path id="Path_3700" data-name="Path 3700" class="cls-5" d="M202.883,1.613,198.254,4.3c-3.131-1.807-6.077-2.106-8.3-.84l4.63-2.69C196.806-.492,199.753-.194,202.883,1.613Z" transform="translate(-189.956 -0.002)"/>
      <path id="Path_3701" data-name="Path 3701" class="cls-5" d="M258.076,30.3l-4.629,2.69a23.586,23.586,0,0,0-3.405-11.5,23.769,23.769,0,0,0-8.275-8.728l4.629-2.69a23.779,23.779,0,0,1,8.275,8.728A23.588,23.588,0,0,1,258.076,30.3Z" transform="translate(-233.468 -8.454)"/>
    </g>
    <g id="Group_2128" data-name="Group 2128" transform="translate(110.63 2.691)">
      <path id="Path_3702" data-name="Path 3702" class="cls-5" d="M191.614,38.646l-.019,9.763v.014l-.014,4.811v0a6.473,6.473,0,0,1-1.36-.229h0a4.845,4.845,0,0,1-1.125-.464,3.052,3.052,0,0,1-.808-.652h0a1.684,1.684,0,0,1-.427-1.01v-.127l.032-14.26c.014-5.063-3.559-11.252-7.966-13.8a7.889,7.889,0,0,0-2.873-1.045,4.351,4.351,0,0,1,1.818-2.2l-4.618,2.684-.03.017-.105.065-.028.018-.079.053L174,22.3a.234.234,0,0,0-.026.018l-.026.019h0c-.018.012-.036.025-.053.039a.468.468,0,0,0-.048.036l-.016.012c-.029.022-.058.045-.087.068h0c-.011.008-.02.016-.031.025l-.031.026,0,0-.029.024a.12.12,0,0,0-.015.014c-.027.023-.053.046-.079.071l-.023.021-.011.011-.03.028-.029.029c-.029.028-.058.057-.086.086s-.068.074-.1.111l-.009.011c-.023.026-.046.053-.068.079l-.008.009c-.019.021-.036.043-.053.065l0,0c-.02.025-.04.05-.059.076s-.027.035-.04.053h0l-.014.018c-.011.014-.02.028-.03.042s-.026.037-.039.055h0c-.053.076-.1.155-.154.237l-.034.058c-.017.027-.031.053-.046.081s-.02.035-.03.053c-.024.043-.047.088-.071.133s-.041.082-.061.124l-.008.016c-.006.012-.012.024-.017.037-.02.042-.039.085-.058.128l-.014.033c-.018.042-.035.085-.053.128l-.017.045-.008.019c-.012.03-.023.061-.034.091a.073.073,0,0,0-.005.014c-.007.017-.014.035-.02.053l0,.007c-.017.049-.034.1-.05.15s-.037.115-.053.173a.067.067,0,0,0,0,.016l0,.01c-.016.055-.031.11-.046.167l0,.009q-.024.09-.045.182c0,.008,0,.016-.005.023-.01.044-.02.088-.029.133-.005.023-.011.046-.014.07a0,0,0,0,0,0,0s0,.005,0,.008c-.011.055-.021.11-.031.167,0,0,0,0,0,0-.012.068-.023.137-.033.207,0,.007,0,.013,0,.02-.007.049-.014.1-.02.147,0,.031-.008.062-.011.094,0,0,0,0,0,.007s0,.005,0,.008,0,.005,0,.008c-.005.038-.008.076-.013.115h0c0,.025-.005.049-.007.074v0a23.438,23.438,0,0,0,0,.037c0,.044-.008.088-.011.133-.005.064-.009.128-.012.193,0,.012,0,.025,0,.037s0,.023,0,.034,0,.009,0,.014c0,.049,0,.1-.006.148,0,.016,0,.032,0,.049s0,.023,0,.034c0,.058,0,.118,0,.178l-.019,9.806-.014,4.812a6.585,6.585,0,0,1-1.275-.2,4.984,4.984,0,0,1-1.219-.49,2.958,2.958,0,0,1-.85-.7,1.624,1.624,0,0,1-.382-.989v-.055l.031-14.327c.011-3.6,1.239-6.275,3.46-7.54s5.167-.967,8.3.84a23.773,23.773,0,0,1,8.275,8.728A23.564,23.564,0,0,1,191.614,38.646Z" transform="translate(-168.143 -16.803)"/>
      <path id="Path_3703" data-name="Path 3703" class="cls-5" d="M210.894,33.363a4.351,4.351,0,0,0-1.818,2.2h0a4.359,4.359,0,0,0-2.8.486Z" transform="translate(-200.17 -30.711)"/>
    </g>
  </g>
</svg>
