<svg xmlns="http://www.w3.org/2000/svg" viewBox="0 0 37 37">
  <defs>
    <style>
      .cls-1 {
        fill: none;
        stroke: #465679;
      }

      .cls-2 {
        fill: #8b95af;
      }
    </style>
  </defs>
  <g id="Group_2236" data-name="Group 2236" transform="translate(-524.5 -463.5)">
    <path id="Path_3982" data-name="Path 3982" class="cls-1" d="M18,36A18,18,0,1,0,0,18,17.985,17.985,0,0,0,18,36" transform="translate(525 464)"/>
    <path id="Path_3983" data-name="Path 3983" class="cls-2" d="M26.5,12.694a7.028,7.028,0,0,1-2.118.635,3.357,3.357,0,0,0,1.588-2.012,6.181,6.181,0,0,1-2.329.847A3.51,3.51,0,0,0,20.888,11a3.752,3.752,0,0,0-3.706,3.706,2.331,2.331,0,0,0,.106.847,10.051,10.051,0,0,1-7.624-3.918,3.656,3.656,0,0,0-.529,1.906,3.553,3.553,0,0,0,1.694,3.071,4.439,4.439,0,0,1-1.694-.424h0a3.644,3.644,0,0,0,2.965,3.6,2.931,2.931,0,0,1-.953.106,2.067,2.067,0,0,1-.741-.106A3.56,3.56,0,0,0,13.9,22.329a7.651,7.651,0,0,1-4.553,1.588H8.5a10.485,10.485,0,0,0,16.2-8.788V14.6a6.156,6.156,0,0,0,1.8-1.906" transform="translate(525.5 464.647)"/>
  </g>
</svg>
