<svg xmlns="http://www.w3.org/2000/svg" viewBox="0 0 41 41">
  <defs>
    <style>
      .cls-1 {
        fill: none;
        stroke: #0c6db2;
      }

      .cls-2 {
        fill: #00adee;
      }
    </style>
  </defs>
  <g id="Group_2235" data-name="Group 2235" transform="translate(-524.5 -463.5)">
    <path id="Path_3982" data-name="Path 3982" class="cls-1" d="M20,40A20,20,0,1,0,0,20,19.983,19.983,0,0,0,20,40" transform="translate(525 464)"/>
    <path id="Path_3983" data-name="Path 3983" class="cls-2" d="M28.5,12.882a7.808,7.808,0,0,1-2.353.706,3.73,3.73,0,0,0,1.765-2.235,6.868,6.868,0,0,1-2.588.941A3.9,3.9,0,0,0,22.265,11a4.168,4.168,0,0,0-4.118,4.118,2.59,2.59,0,0,0,.118.941,11.167,11.167,0,0,1-8.471-4.353,4.063,4.063,0,0,0-.588,2.118,3.948,3.948,0,0,0,1.882,3.412,4.932,4.932,0,0,1-1.882-.471h0a4.048,4.048,0,0,0,3.294,4,3.257,3.257,0,0,1-1.059.118,2.3,2.3,0,0,1-.824-.118A3.956,3.956,0,0,0,14.5,23.588a8.5,8.5,0,0,1-5.059,1.765H8.5a11.65,11.65,0,0,0,18-9.765V15a6.84,6.84,0,0,0,2-2.118" transform="translate(526.5 465.941)"/>
  </g>
</svg>
