<svg xmlns="http://www.w3.org/2000/svg" xmlns:xlink="http://www.w3.org/1999/xlink" viewBox="0 0 72.039 82">
  <defs>
    <style>
      .cls-1 {
        fill: url(#linear-gradient);
      }

      .cls-2 {
        fill: url(#linear-gradient-2);
      }

      .cls-3 {
        fill: url(#linear-gradient-3);
      }

      .cls-4 {
        fill: #cd2a01;
      }
    </style>
    <linearGradient id="linear-gradient" x1="1" x2="0" y2="1" gradientUnits="objectBoundingBox">
      <stop offset="0" stop-color="#ffeabe"/>
      <stop offset="0.599" stop-color="#ffce62"/>
      <stop offset="1" stop-color="#fdc140"/>
    </linearGradient>
    <linearGradient id="linear-gradient-2" x1="1" x2="0" y2="1" gradientUnits="objectBoundingBox">
      <stop offset="0" stop-color="#9fe5ff"/>
      <stop offset="0.599" stop-color="#3ac8fd"/>
      <stop offset="1" stop-color="#00adee"/>
    </linearGradient>
    <linearGradient id="linear-gradient-3" x1="1" x2="0" y2="1" gradientUnits="objectBoundingBox">
      <stop offset="0" stop-color="#00ace6"/>
      <stop offset="0.599" stop-color="#124f95"/>
      <stop offset="1" stop-color="#1d1562"/>
    </linearGradient>
  </defs>
  <g id="wall-clock" transform="translate(-31.099 0)">
    <path id="Path_3704" data-name="Path 3704" class="cls-1" d="M114.658,74.916c-13.207-7.625-23.947-1.5-23.99,13.673s10.628,33.659,23.835,41.284,23.948,1.5,23.991-13.672-10.629-33.66-23.836-41.285" transform="translate(-50.028 -60.163)"/>
    <path id="Path_3705" data-name="Path 3705" class="cls-2" d="M213,232a12.4,12.4,0,0,1-5.528-9.8c.054-3.568,2.617-4.965,5.724-3.12a12.4,12.4,0,0,1,5.528,9.8C218.674,232.449,216.111,233.846,213,232Z" transform="translate(-148.129 -183.309)"/>
    <path id="Path_3706" data-name="Path 3706" class="cls-3" d="M259.873,207.487a.466.466,0,0,0-.465-.046l-12.817,7.3a5.4,5.4,0,0,1,.925,1.6l12.817-7.3c.257-.148.258-.625,0-1.067a1.332,1.332,0,0,0-.464-.49" transform="translate(-180.98 -174.182)"/>
    <path id="Path_3707" data-name="Path 3707" class="cls-3" d="M196.131,187.037a5.41,5.41,0,0,0-.925-1.6,4.055,4.055,0,0,0-1.052-.909,2.412,2.412,0,0,0-.612-.256l-6.265-10.807a2.221,2.221,0,0,0-.772-.815.779.779,0,0,0-.774-.078c-.429.244-.431,1.039,0,1.777l6.265,10.807a2.367,2.367,0,0,0-.086.654,4.924,4.924,0,0,0,2.235,3.871c1.239.716,2.247.143,2.251-1.282A4.006,4.006,0,0,0,196.131,187.037Z" transform="translate(-129.594 -144.872)"/>
    <path id="Path_3708" data-name="Path 3708" class="cls-1" d="M230.212,256.911a2.158,2.158,0,0,0,.98,1.7.683.683,0,0,0,.714.059l-.015.009.564-.328a.688.688,0,0,0,.287-.63,2.159,2.159,0,0,0-.98-1.7.693.693,0,0,0-.7-.068l-.564.328h0A.686.686,0,0,0,230.212,256.911Z" transform="translate(-167.224 -214.905)"/>
    <path id="Path_3709" data-name="Path 3709" class="cls-2" d="M231.2,258.068c-.543-.313-.984-.062-.986.562a2.158,2.158,0,0,0,.98,1.7c.543.313.984.062.986-.562A2.159,2.159,0,0,0,231.2,258.068Z" transform="translate(-167.225 -216.624)"/>
    <path id="Path_3710" data-name="Path 3710" class="cls-4" d="M74.822,3.9c-7.9-4.559-15.049-4.982-20.215-1.98l-15.222,8.92.05-.028c-5.128,2.951-8.311,9.263-8.337,18.248C31.048,47.086,43.725,69.044,59.416,78.1c7.994,4.615,15.226,4.989,20.405,1.863-.064.039-.127.079-.192.117l15.222-8.92c5.1-2.964,8.262-9.265,8.287-18.222C103.188,34.913,90.511,12.955,74.822,3.9Zm3.464,67.417c-3.744.886-8.312.04-13.239-2.8-12.647-7.3-22.865-25-22.823-39.533.016-5.57,1.538-9.865,4.12-12.635,3.744-.885,8.312-.039,13.238,2.806,12.646,7.3,22.865,25,22.824,39.532C82.391,64.25,80.869,68.544,78.287,71.314Z"/>
    <g id="Group_2130" data-name="Group 2130" transform="translate(31.099 0)">
      <g id="Group_2129" data-name="Group 2129" transform="translate(5.511 0)">
        <path id="Path_3711" data-name="Path 3711" class="cls-3" d="M72.187,92.482,77.8,89.219c-4.11,2.389-6.659,7.468-6.68,14.688-.041,14.533,10.176,32.232,22.823,39.534L88.331,146.7c-12.647-7.3-22.865-25-22.823-39.534C65.528,99.95,68.076,94.87,72.187,92.482Z" transform="translate(-65.507 -74.93)"/>
        <path id="Path_3712" data-name="Path 3712" class="cls-3" d="M229.924,429.366l-5.614,3.263c-4.164,2.42-9.929,2.078-16.293-1.6l5.614-3.263C219.995,431.444,225.761,431.785,229.924,429.366Z" transform="translate(-185.193 -359.26)"/>
        <path id="Path_3713" data-name="Path 3713" class="cls-3" d="M82.842,10.837l15.222-8.92c5.165-3,12.319-2.579,20.215,1.98l-15.222,8.92C95.161,8.258,88.007,7.835,82.842,10.837Z" transform="translate(-80.066 0)"/>
        <path id="Path_3714" data-name="Path 3714" class="cls-3" d="M244.311,91.6l-15.222,8.92c5.1-2.964,8.262-9.265,8.287-18.222.051-18.028-12.626-39.986-28.315-49.044l15.222-8.92c15.689,9.058,28.366,31.016,28.315,49.044C252.572,82.334,249.41,88.636,244.311,91.6Z" transform="translate(-186.07 -20.437)"/>
      </g>
      <path id="Path_3715" data-name="Path 3715" class="cls-3" d="M59.6,59.592C75.29,68.65,87.967,90.608,87.916,108.636s-12.811,25.3-28.5,16.243S31.048,93.862,31.1,75.833,43.911,50.533,59.6,59.592Zm-.167,58.956c12.646,7.3,22.932,1.44,22.973-13.093S72.229,73.224,59.582,65.923,36.651,64.483,36.61,79.014s10.176,32.232,22.824,39.533" transform="translate(-31.099 -46.775)"/>
    </g>
  </g>
</svg>
